<svg id="Layer_1" data-name="Layer 1" xmlns="http://www.w3.org/2000/svg" viewBox="0 0 1599.03 540.93"><defs><style>.cls-1{fill:none;stroke:#fff;stroke-miterlimit:10;stroke-width:5px;}</style></defs><path class="cls-1" d="M0,701.43l152.61-2.25c11.87-.17,24.19-.44,34.8-4.68,9.29-3.72,16.35-10.14,23.05-16.47q30.27-28.59,57.74-59a6,6,0,0,1,8.23-.13c17,17.72,53.75,16.33,83.28,19.14,45.6,4.32,91.13,25.11,134.88,14,51.46-13,75.78-64.78,127.66-76.72,48.69-11.21,96.2,17.21,145,28.17,71.8,16.13,155.24-10.42,193.21-61.49,31.54-42.42,32-95.13,57-140.23,17.09-30.82,45-56.94,73.11-82.13q47.88-42.9,98.14-84.07c12.6-10.33,25.58-20.89,32.83-34.07,4.62-8.42,6.81-17.75,13.15-25.43s19.08-13.33,29.46-9.31c8.53,3.31,11.83,11.45,14.29,18.74q50.46,149.55,100.9,299.09c8.11,24,16.64,48.78,35.7,68.53s51.48,33.51,81.74,27.1c26-5.5,83.11-63.55,100.6-78.83" transform="translate(0.04 -163)"/></svg>